# xmcd CD database file
#
# Track frame offsets:
#	150
#	14497
#	26952
#	36957
#	52441
#	71731
#	85538
#	97698
#	114374
#	125072
#
# Disc length: 1817 seconds
#
# Revision: 0
# Processed by: cddbd v1.5.2PL0 Copyright (c) Steve Scherf et al.
# Submitted via: CDex 1.51
#
DISCID=8707170a
DTITLE=Conway Twitty - Lost In The Feeling
DYEAR=2009
DGENRE=Country
TTITLE0=Lost In The Feeling
TTITLE1=The Best Is Yet To Come
TTITLE2=You've Got A Good Love Coming
TTITLE3=We're So Close
TTITLE4=Heartache Tonight
TTITLE5=A Stranger's Point Of View
TTITLE6=I Think I'm In Love
TTITLE7=Three Times A Lady
TTITLE8=First Things First
TTITLE9=Don't It Feel Good
EXTD=YEAR: 2009
EXTT0=
EXTT1=
EXTT2=
EXTT3=
EXTT4=
EXTT5=
EXTT6=
EXTT7=
EXTT8=
EXTT9=
PLAYORDER=
